<?xml version="1.0" encoding="UTF-8"?>
<svg width="400" height="300" viewBox="0 0 400 300" fill="none" xmlns="http://www.w3.org/2000/svg">
  <!-- Background Elements -->
  <rect x="20" y="50" width="360" height="200" rx="15" fill="#f0fff4" opacity="0.8"/>
  
  <!-- Content Platform -->
  <rect x="60" y="70" width="160" height="160" rx="5" fill="#ffffff" stroke="#16a34a" stroke-width="3"/>
  <rect x="70" y="90" width="140" height="20" rx="3" fill="#dcfce7"/>
  <rect x="70" y="120" width="140" height="20" rx="3" fill="#dcfce7"/>
  <rect x="70" y="150" width="140" height="20" rx="3" fill="#dcfce7"/>
  <rect x="70" y="180" width="100" height="20" rx="3" fill="#dcfce7"/>
  <rect x="70" y="80" width="140" height="5" rx="2" fill="#16a34a"/>
  
  <!-- Bitcoin/Lightning Payment -->
  <circle cx="290" cy="110" r="40" fill="#ffffff" stroke="#16a34a" stroke-width="3"/>
  <text x="290" y="125" font-family="Arial" font-size="35" text-anchor="middle" fill="#f59e0b">₿</text>
  
  <!-- Lightning Bolts -->
  <path d="M240 140 L230 170 L250 165 L235 200" stroke="#f59e0b" stroke-width="5" fill="none"/>
  <path d="M260 145 L250 175 L270 170 L255 205" stroke="#f59e0b" stroke-width="5" fill="none"/>
  <path d="M280 150 L270 180 L290 175 L275 210" stroke="#f59e0b" stroke-width="5" fill="none"/>
  
  <!-- Analytics/Revenue Bar Chart -->
  <rect x="240" y="190" width="20" height="40" rx="2" fill="#86efac" stroke="#16a34a" stroke-width="2"/>
  <rect x="270" y="170" width="20" height="60" rx="2" fill="#4ade80" stroke="#16a34a" stroke-width="2"/>
  <rect x="300" y="150" width="20" height="80" rx="2" fill="#22c55e" stroke="#16a34a" stroke-width="2"/>
  <rect x="330" y="130" width="20" height="100" rx="2" fill="#16a34a" stroke="#16a34a" stroke-width="2"/>
</svg>